<?xml version="1.0" encoding="UTF-8" standalone="no"?>
<!-- Created with Inkscape (http://www.inkscape.org/) -->
<svg xmlns:dc="http://purl.org/dc/elements/1.1/" xmlns:cc="http://creativecommons.org/ns#" xmlns:rdf="http://www.w3.org/1999/02/22-rdf-syntax-ns#" xmlns:svg="http://www.w3.org/2000/svg" xmlns="http://www.w3.org/2000/svg" xmlns:xlink="http://www.w3.org/1999/xlink" xmlns:sodipodi="http://sodipodi.sourceforge.net/DTD/sodipodi-0.dtd" xmlns:inkscape="http://www.inkscape.org/namespaces/inkscape" version="1.0" width="86.387253" height="79.539825" id="svg2" sodipodi:version="0.32" inkscape:version="0.46" sodipodi:docname="xoseluis_grafico.svg" inkscape:output_extension="org.inkscape.output.svg.inkscape">
  <metadata id="metadata2537">
    <rdf:RDF>
      <cc:Work rdf:about="">
        <dc:format>image/svg+xml</dc:format>
        <dc:type rdf:resource="http://purl.org/dc/dcmitype/StillImage"/>
      </cc:Work>
    </rdf:RDF>
  </metadata>
  <sodipodi:namedview inkscape:window-height="779" inkscape:window-width="1272" inkscape:pageshadow="2" inkscape:pageopacity="0.0" guidetolerance="10.0" gridtolerance="10.0" objecttolerance="10.0" borderopacity="1.0" bordercolor="#666666" pagecolor="#ffffff" id="base" showgrid="false" inkscape:zoom="6.4129832" inkscape:cx="25.166816" inkscape:cy="39.769913" inkscape:window-x="0" inkscape:window-y="0" inkscape:current-layer="layer1"/>
  <defs id="defs4">
    <inkscape:perspective sodipodi:type="inkscape:persp3d" inkscape:vp_x="0 : 39.769913 : 1" inkscape:vp_y="0 : 1000 : 0" inkscape:vp_z="86.387253 : 39.769913 : 1" inkscape:persp3d-origin="43.193626 : 26.513275 : 1" id="perspective2539"/>
    <linearGradient id="linearGradient3989">
      <stop id="stop3991" style="stop-color: rgb(0, 0, 0); stop-opacity: 1;" offset="0"/>
      <stop id="stop3993" style="stop-color: rgb(0, 0, 0); stop-opacity: 0;" offset="1"/>
    </linearGradient>
    <linearGradient id="linearGradient2190">
      <stop id="stop2192" style="stop-color: rgb(172, 187, 255); stop-opacity: 1;" offset="0"/>
      <stop id="stop2194" style="stop-color: rgb(172, 187, 255); stop-opacity: 0;" offset="1"/>
    </linearGradient>
    <linearGradient x1="225.2822" y1="451.83481" x2="131.99297" y2="322.8829" id="linearGradient2196" xlink:href="#linearGradient2190" gradientUnits="userSpaceOnUse" gradientTransform="matrix(1.63087, 0, 0, 1.56204, -66.6922, -169.138)"/>
    <linearGradient x1="460.01428" y1="585.21936" x2="152.87143" y2="332.36218" id="linearGradient3995" xlink:href="#linearGradient3989" gradientUnits="userSpaceOnUse" gradientTransform="translate(-30, -1.42856)"/>
    <linearGradient x1="460.01428" y1="585.21936" x2="152.87143" y2="332.36218" id="linearGradient5822" xlink:href="#linearGradient3989" gradientUnits="userSpaceOnUse" gradientTransform="translate(-30, -1.42856)"/>
    <linearGradient x1="225.2822" y1="451.83481" x2="131.99297" y2="322.8829" id="linearGradient5824" xlink:href="#linearGradient2190" gradientUnits="userSpaceOnUse" gradientTransform="matrix(1.63087, 0, 0, 1.56204, -66.6922, -169.138)"/>
    <linearGradient x1="460.01428" y1="585.21936" x2="152.87143" y2="332.36218" id="linearGradient5848" xlink:href="#linearGradient3989" gradientUnits="userSpaceOnUse" gradientTransform="translate(-30, -1.42856)"/>
    <linearGradient x1="225.2822" y1="451.83481" x2="131.99297" y2="322.8829" id="linearGradient5850" xlink:href="#linearGradient2190" gradientUnits="userSpaceOnUse" gradientTransform="matrix(1.63087, 0, 0, 1.56204, -66.6922, -169.138)"/>
    <linearGradient x1="460.01428" y1="585.21936" x2="152.87143" y2="332.36218" id="linearGradient9451" xlink:href="#linearGradient3989" gradientUnits="userSpaceOnUse" gradientTransform="translate(-30, -1.42856)"/>
    <linearGradient x1="225.2822" y1="451.83481" x2="131.99297" y2="322.8829" id="linearGradient9453" xlink:href="#linearGradient2190" gradientUnits="userSpaceOnUse" gradientTransform="matrix(1.63087, 0, 0, 1.56204, -66.6922, -169.138)"/>
    <linearGradient x1="225.2822" y1="451.83481" x2="131.99297" y2="322.8829" id="linearGradient9474" xlink:href="#linearGradient2190" gradientUnits="userSpaceOnUse" gradientTransform="matrix(0.35056, 0, 0, 0.37016, 22.9847, 226.277)"/>
    <linearGradient x1="460.01428" y1="585.21936" x2="152.87143" y2="332.36218" id="linearGradient9477" xlink:href="#linearGradient3989" gradientUnits="userSpaceOnUse" gradientTransform="matrix(0.214952, 0, 0, 0.236971, 30.8718, 266.019)"/>
  </defs>
  <g transform="translate(-95.1872, -327.458)" id="layer1" style="display: inline;">
    <rect style="fill: rgb(219, 227, 226); stroke: rgb(0, 0, 128);" id="rect2790" width="81.709244" height="74.224426" x="2.1830714" y="2.0407917" transform="translate(95.1872, 327.458)"/>
    <g id="g2605" transform="translate(0.748775, 0.616911)">
      <path id="path2575" d="M 100.67202,331.83779 C 100.82795,401.54014 100.67202,401.38421 100.67202,401.38421 L 100.67202,331.83779 z" style="fill: none; fill-rule: evenodd; stroke: rgb(102, 102, 102); stroke-width: 1px; stroke-linecap: butt; stroke-linejoin: miter; stroke-opacity: 1;"/>
      <path id="path2577" d="M 109.90336,331.83779 C 110.05929,401.54014 109.90336,401.38421 109.90336,401.38421 L 109.90336,331.83779 z" style="fill: none; fill-rule: evenodd; stroke: rgb(102, 102, 102); stroke-width: 1px; stroke-linecap: butt; stroke-linejoin: miter; stroke-opacity: 1; display: inline;"/>
      <path id="path2579" d="M 119.13471,331.83779 C 119.29064,401.54014 119.13471,401.38421 119.13471,401.38421 L 119.13471,331.83779 z" style="fill: none; fill-rule: evenodd; stroke: rgb(102, 102, 102); stroke-width: 1px; stroke-linecap: butt; stroke-linejoin: miter; stroke-opacity: 1; display: inline;"/>
      <path id="path2581" d="M 128.36606,331.83779 C 128.52199,401.54014 128.36606,401.38421 128.36606,401.38421 L 128.36606,331.83779 z" style="fill: none; fill-rule: evenodd; stroke: rgb(102, 102, 102); stroke-width: 1px; stroke-linecap: butt; stroke-linejoin: miter; stroke-opacity: 1; display: inline;"/>
      <path id="path2583" d="M 137.5974,331.83779 C 137.75333,401.54014 137.5974,401.38421 137.5974,401.38421 L 137.5974,331.83779 z" style="fill: none; fill-rule: evenodd; stroke: rgb(102, 102, 102); stroke-width: 1px; stroke-linecap: butt; stroke-linejoin: miter; stroke-opacity: 1; display: inline;"/>
      <path id="path2585" d="M 146.82875,331.83779 C 146.98468,401.54014 146.82875,401.38421 146.82875,401.38421 L 146.82875,331.83779 z" style="fill: none; fill-rule: evenodd; stroke: rgb(102, 102, 102); stroke-width: 1px; stroke-linecap: butt; stroke-linejoin: miter; stroke-opacity: 1; display: inline;"/>
      <path id="path2587" d="M 156.06009,331.83779 C 156.21602,401.54014 156.06009,401.38421 156.06009,401.38421 L 156.06009,331.83779 z" style="fill: none; fill-rule: evenodd; stroke: rgb(102, 102, 102); stroke-width: 1px; stroke-linecap: butt; stroke-linejoin: miter; stroke-opacity: 1; display: inline;"/>
      <path id="path2589" d="M 165.29144,331.83779 C 165.44737,401.54014 165.29144,401.38421 165.29144,401.38421 L 165.29144,331.83779 z" style="fill: none; fill-rule: evenodd; stroke: rgb(102, 102, 102); stroke-width: 1px; stroke-linecap: butt; stroke-linejoin: miter; stroke-opacity: 1; display: inline;"/>
      <path id="path2591" d="M 174.52278,331.83779 C 174.67871,401.54014 174.52278,401.38421 174.52278,401.38421 L 174.52278,331.83779 z" style="fill: none; fill-rule: evenodd; stroke: rgb(102, 102, 102); stroke-width: 1px; stroke-linecap: butt; stroke-linejoin: miter; stroke-opacity: 1; display: inline;"/>
    </g>
    <g id="g2620" transform="translate(-0.247463, 2.33218)">
      <path id="path2593" d="M 177.92003,334.1457 C 99.160372,334.28566 99.336563,334.1457 99.336563,334.1457 L 177.92003,334.1457 z" style="fill: none; fill-rule: evenodd; stroke: rgb(102, 102, 102); stroke-width: 1.0071px; stroke-linecap: butt; stroke-linejoin: miter; stroke-opacity: 1; display: inline;"/>
      <path id="path2595" d="M 177.92003,342.92254 C 99.160374,343.0625 99.336565,342.92254 99.336565,342.92254 L 177.92003,342.92254 z" style="fill: none; fill-rule: evenodd; stroke: rgb(102, 102, 102); stroke-width: 1.0071px; stroke-linecap: butt; stroke-linejoin: miter; stroke-opacity: 1; display: inline;"/>
      <path id="path2597" d="M 177.92003,351.69937 C 99.160377,351.83933 99.336568,351.69937 99.336568,351.69937 L 177.92003,351.69937 z" style="fill: none; fill-rule: evenodd; stroke: rgb(102, 102, 102); stroke-width: 1.0071px; stroke-linecap: butt; stroke-linejoin: miter; stroke-opacity: 1; display: inline;"/>
      <path id="path2599" d="M 177.92003,360.47621 C 99.160363,360.61617 99.336554,360.47621 99.336554,360.47621 L 177.92003,360.47621 z" style="fill: none; fill-rule: evenodd; stroke: rgb(102, 102, 102); stroke-width: 1.0071px; stroke-linecap: butt; stroke-linejoin: miter; stroke-opacity: 1; display: inline;"/>
      <path id="path2601" d="M 177.92003,369.25305 C 99.160362,369.39301 99.336553,369.25305 99.336553,369.25305 L 177.92003,369.25305 z" style="fill: none; fill-rule: evenodd; stroke: rgb(102, 102, 102); stroke-width: 1.0071px; stroke-linecap: butt; stroke-linejoin: miter; stroke-opacity: 1; display: inline;"/>
      <path id="path2603" d="M 177.92003,378.02988 C 99.160374,378.16984 99.336565,378.02988 99.336565,378.02988 L 177.92003,378.02988 z" style="fill: none; fill-rule: evenodd; stroke: rgb(102, 102, 102); stroke-width: 1.0071px; stroke-linecap: butt; stroke-linejoin: miter; stroke-opacity: 1; display: inline;"/>
      <path id="path2616" d="M 177.92003,386.80672 C 99.160373,386.94668 99.336564,386.80672 99.336564,386.80672 L 177.92003,386.80672 z" style="fill: none; fill-rule: evenodd; stroke: rgb(102, 102, 102); stroke-width: 1.0071px; stroke-linecap: butt; stroke-linejoin: miter; stroke-opacity: 1; display: inline;"/>
      <path id="path2618" d="M 177.92003,395.58356 C 99.160374,395.72352 99.336565,395.58356 99.336565,395.58356 L 177.92003,395.58356 z" style="fill: none; fill-rule: evenodd; stroke: rgb(102, 102, 102); stroke-width: 1.0071px; stroke-linecap: butt; stroke-linejoin: miter; stroke-opacity: 1; display: inline;"/>
    </g>
    <path style="fill: rgb(255, 0, 0); stroke: rgb(255, 0, 0);" id="path2796" d="M 5.3863162,62.14683 C 5.8158691,61.534399 6.2287532,60.910088 6.6316271,60.279673 C 7.8707388,58.32534 9.2319783,56.452073 10.555435,54.554781 C 12.116093,52.355614 13.378421,49.97329 14.442019,47.500756 C 14.937513,46.311095 15.349682,45.089311 15.822208,43.89082 C 16.086922,43.278438 16.343139,42.654071 16.732848,42.109044 C 17.406311,41.271357 18.236164,41.002807 19.287189,40.427604 C 19.382976,40.375182 19.498028,40.425111 19.588404,40.448888 C 20.008551,40.820297 20.261275,41.35889 20.556939,41.830564 C 21.039691,42.555439 21.507869,43.289709 22.018948,43.995263 C 22.312279,44.413199 22.676035,44.771334 23.023258,45.143222 C 23.237998,45.359647 23.440808,45.541363 23.740881,45.614467 C 23.919902,45.652129 24.076347,45.66302 24.234055,45.559163 C 24.272877,45.533597 24.385856,45.452376 24.345263,45.475023 C 23.738213,45.813696 23.137483,46.163575 22.533593,46.50785 C 23.337242,45.85336 23.973108,45.020039 24.591016,44.19591 C 25.815392,42.459465 26.884787,40.622072 28.025894,38.831662 C 29.078504,37.112235 30.156569,35.409222 31.245513,33.71259 C 31.796141,32.974677 32.272274,32.138037 33.028242,31.586442 C 33.293815,32.002776 34.612318,30.146169 35.494226,30.394468 C 35.648157,30.437807 35.773147,30.542266 35.891389,30.642327 C 36.6129,31.245025 37.213932,31.964366 37.810355,32.6866 C 38.999056,34.136834 40.228311,35.552235 41.476052,36.951649 C 42.293126,37.817042 43.040736,38.743734 43.841387,39.623328 C 44.276284,40.051009 44.667063,40.522169 45.097515,40.953408 C 45.311867,41.166784 45.496419,41.427587 45.785441,41.539746 C 45.815623,41.538151 45.851788,41.553068 45.875986,41.534959 C 45.918712,41.502985 46.015023,41.379403 45.967433,41.403551 C 45.366927,41.708253 44.808298,42.092671 44.201487,42.384616 C 44.100236,42.433329 44.360467,42.225565 44.434516,42.141057 C 44.650977,41.894022 44.795183,41.685024 44.993202,41.416662 C 45.841938,40.170413 46.687102,38.921674 47.555222,37.688774 C 48.493146,36.423387 49.555993,35.256679 50.624383,34.101379 C 51.601702,33.0144 52.065522,32.823156 53.656151,31.986866 C 53.722249,31.952114 53.806856,31.966789 53.880114,31.98128 C 53.954837,31.996062 54.019762,32.042165 54.089586,32.072607 C 54.605054,32.529531 54.970506,33.136099 55.320604,33.723099 C 55.712388,34.472087 56.104382,35.220601 56.518566,35.957525 C 56.711731,36.334042 56.902409,36.700781 57.178346,37.021429 C 57.383757,37.213543 57.688552,37.214482 57.954823,37.229939 C 58.111637,37.239466 58.287578,37.228328 58.430474,37.152716 C 58.534039,37.097916 58.82967,36.907764 58.726096,36.962545 C 57.291706,37.721199 56.778314,38.128724 57.976814,37.268335 C 60.030077,35.770274 62.023093,34.194609 63.953884,32.542143 C 65.940925,30.858149 67.851264,29.085696 69.629053,27.181963 C 70.646881,26.099876 71.517721,24.896009 72.447984,23.741858 C 73.122819,23.035591 72.880361,23.258443 74.701395,22.404919 C 74.760978,22.376992 74.813959,22.476143 74.85818,22.524871 C 75.019809,22.702975 75.085369,22.964858 75.153868,23.185986 C 75.351749,24.060219 75.649373,24.906077 75.90584,25.763902 C 76.142018,26.504567 76.366446,27.248388 76.57991,27.995927 C 76.719343,28.440909 76.856032,28.887227 76.983117,29.335963 C 77.100599,29.61144 77.182546,29.898757 77.274065,30.183297 C 77.361107,30.446773 77.454971,30.707023 77.539456,30.97183 C 77.678225,31.283533 77.824172,31.592799 77.980158,31.896313 C 78.122296,32.183584 78.287425,32.466337 78.505175,32.703266 C 78.631217,32.872846 78.8044,33.038404 79.010735,32.903682 C 79.650382,32.365438 79.054575,32.876173 77.251254,33.882723 C 77.202196,33.910105 77.343072,33.817899 77.387652,33.783705 C 77.590043,33.628468 77.77823,33.456406 77.967463,33.285749 C 78.25501,33.041209 78.542115,32.796084 78.825597,32.546838 L 80.933536,31.6865 C 80.652872,31.945414 80.354749,32.185041 80.062321,32.430555 C 79.212274,33.198508 78.36281,34.061583 77.165179,34.295351 C 76.893559,34.264803 76.688298,34.115166 76.531299,33.893295 C 76.315898,33.631121 76.142602,33.337085 75.995684,33.03164 C 75.828421,32.72045 75.673284,32.402845 75.52345,32.083003 C 75.430684,31.820649 75.34901,31.553661 75.257902,31.291038 C 75.164758,31.002408 75.080613,30.711611 74.971645,30.428181 C 74.856752,29.974084 74.722246,29.524859 74.593681,29.074518 C 74.403408,28.318802 74.195776,27.568418 73.964973,26.82399 C 73.716663,25.970069 73.411367,25.134188 73.164849,24.279555 C 73.101257,24.094247 73.092782,24.030569 72.994191,23.872375 C 72.976563,23.844088 72.95945,23.810991 72.929701,23.795962 C 72.914643,23.788355 72.86893,23.825075 72.883401,23.816403 C 74.851096,22.637127 75.282352,22.323643 74.512279,22.869268 C 74.139694,23.273204 73.805851,23.702308 73.45618,24.126093 C 72.823247,24.893178 72.16934,25.643096 71.516398,26.393066 C 69.713245,28.308844 67.783982,30.0989 65.778905,31.802173 C 63.895688,33.43074 61.948838,34.980853 59.961553,36.480476 C 58.693111,37.450243 59.319609,37.007055 56.98163,38.368225 C 56.682241,38.542529 56.420967,38.608316 56.08428,38.5638 C 55.760039,38.525475 55.428794,38.467169 55.205246,38.20547 C 54.931823,37.863671 54.752162,37.472253 54.565429,37.077562 C 54.179279,36.330044 53.804323,35.576458 53.391216,34.843135 C 53.121508,34.410112 52.762091,33.79974 52.367442,33.470047 C 52.316876,33.427804 52.255289,33.400859 52.199212,33.366265 C 52.149555,33.362117 52.099636,33.34725 52.050241,33.35382 C 51.991387,33.361648 51.937256,33.390354 51.880764,33.408621 C 52.450844,33.068723 53.020925,32.728824 53.591005,32.388925 C 53.690284,32.333112 53.408007,32.52485 53.321346,32.598751 C 53.056501,32.824601 52.885669,33.009447 52.636446,33.261366 C 51.532929,34.403487 50.450977,35.574017 49.496357,36.845047 C 48.646517,38.058801 47.815328,39.286035 47.019976,40.5363 C 46.92848,40.672112 46.441659,41.431952 46.306647,41.523077 C 45.614305,41.990367 44.899735,42.425144 44.174862,42.840181 C 44.057727,42.907248 43.960627,42.848241 43.859804,42.808129 C 43.574352,42.641762 43.369624,42.384079 43.152864,42.138906 C 42.741513,41.689168 42.344997,41.225738 41.935179,40.774434 C 41.170785,39.870701 40.451982,38.929265 39.666879,38.042666 C 38.457211,36.606806 37.221089,35.191778 35.961115,33.800054 C 35.34463,33.103432 34.721729,32.410811 33.956399,31.872045 C 33.876025,31.825645 33.809395,31.776911 33.719203,31.754945 C 33.089169,31.601496 30.846618,33.488505 35.150509,30.762765 C 34.286816,31.227588 33.77663,32.124947 33.177397,32.865672 C 32.049366,34.547675 30.974857,36.264274 29.926043,37.996634 C 28.771966,39.772294 27.698186,41.599278 26.520753,43.360189 C 25.956888,44.172339 25.386357,44.981932 24.662307,45.66185 C 23.958772,46.080508 23.259777,46.506892 22.551702,46.917824 C 22.333463,47.044479 22.06026,46.96775 21.835906,46.909063 C 21.525112,46.785844 21.294021,46.573469 21.067854,46.330644 C 20.720312,45.949134 20.375735,45.562933 20.088403,45.132819 C 19.596899,44.411096 19.131662,43.671619 18.629029,42.957502 C 18.471995,42.725353 18.357432,42.554843 18.200474,42.326927 C 18.074059,42.143362 17.941688,41.86052 17.712703,41.790839 C 17.058964,41.926117 15.248909,43.174478 19.306754,40.803674 C 19.360716,40.772147 19.197216,40.864543 19.146772,40.901438 C 18.998059,41.010208 18.946342,41.080892 18.819271,41.218774 C 18.366082,41.715198 18.136542,42.364252 17.842628,42.959921 C 17.308364,44.176754 16.86272,45.431485 16.314649,46.642843 C 15.187463,49.124827 13.911252,51.538781 12.344286,53.775624 C 11.07815,55.62643 9.7770104,57.458091 8.640312,59.392954 C 8.2698395,60.009009 7.8664216,60.606678 7.5121588,61.230725 L 5.3863162,62.14683 z" transform="translate(95.1872, 327.458)"/>
    <path style="fill: rgb(0, 0, 255); stroke: rgb(0, 0, 255);" id="path2802" d="M 6.615954,31.38382 C 6.6746337,31.363557 6.7350342,31.34772 6.791993,31.32303 C 6.8302703,31.306438 7.2913272,31.071026 7.3020976,31.065033 C 7.4035779,31.00857 7.7025647,30.829745 7.6009723,30.886006 C 5.978408,31.784569 5.5195744,32.143171 6.380413,31.511537 C 7.023683,30.983491 7.5975629,30.377611 8.1896115,29.794081 C 8.7641447,29.17274 9.3674481,28.583732 10.006463,28.028962 C 10.81197,27.405345 10.430452,27.687018 12.319115,26.659119 C 12.400226,26.614975 12.53934,26.63968 12.611837,26.689562 C 12.714635,26.760291 12.777863,26.882134 12.842531,26.982592 C 13.180659,27.673789 13.557337,28.343708 13.933541,29.014569 C 14.61698,30.263421 15.389325,31.457303 16.243605,32.595436 C 16.639099,33.097294 16.999464,33.715037 17.629593,33.941976 C 17.844459,33.940655 17.708972,33.954992 17.92743,33.895232 C 18.202829,33.819896 18.073785,33.879798 18.388824,33.719125 C 18.535224,33.644461 18.965495,33.403755 18.823598,33.486658 C 18.418872,33.723118 18.007961,33.948826 17.600142,34.17991 C 19.867477,32.791884 22.115498,31.372855 24.381735,29.982866 C 26.8079,28.543553 29.154472,26.980175 31.487178,25.396015 C 32.665598,24.612745 33.871673,23.872743 35.068159,23.117792 C 35.472441,22.840414 35.894762,22.590401 36.301475,22.316902 C 41.998826,19.044007 36.459985,22.221674 36.540865,22.176918 C 37.235469,21.792549 37.908291,21.369165 38.608046,20.994255 C 38.628539,20.983275 38.775891,21.045123 38.789834,21.058134 C 38.839071,21.104084 38.873853,21.163412 38.915863,21.216051 C 39.265733,21.743156 39.608686,22.27445 39.955255,22.803673 C 40.481741,23.570662 40.995652,24.344924 41.505271,25.123149 C 41.886035,25.694968 42.224299,26.295204 42.637497,26.844883 C 42.698958,26.922206 42.939774,27.307388 43.079174,27.278931 C 43.149504,27.264574 43.180894,27.177551 43.229299,27.124547 C 42.63194,27.454874 42.05758,27.830728 41.437222,28.115527 C 41.331629,28.164003 41.590295,27.940227 41.658092,27.845869 C 41.748543,27.719984 41.829282,27.58735 41.911257,27.455788 C 42.352422,26.74776 42.769852,26.024209 43.194379,25.306199 C 44.148673,23.5936 45.294869,22.004309 46.48743,20.452625 C 47.40208,19.252095 48.498869,18.205742 49.623879,17.205353 C 49.924062,16.958421 50.209765,16.695169 50.495775,16.432294 C 50.517076,16.412715 50.784179,16.16438 50.839662,16.132846 C 51.534055,15.738188 52.239042,15.362468 52.938732,14.977279 C 53.185186,15.108111 53.251926,15.386703 53.368575,15.620037 C 53.470046,15.823011 53.583183,16.019942 53.69094,16.219651 C 54.638706,17.887503 55.849417,19.38785 56.962055,20.945984 C 58.615894,23.293015 60.12999,25.74291 61.453622,28.291856 C 61.724661,28.813802 61.97692,29.345287 62.238568,29.872003 C 63.591988,32.658222 64.763182,35.52633 65.933192,38.392697 C 66.553526,39.976211 67.311057,41.499387 68.036682,43.0357 C 68.40291,43.783367 68.779459,44.52741 69.087381,45.301434 C 69.37163,46.010603 69.588544,46.743488 69.824214,47.469687 C 69.960751,47.719499 70.096719,48.615587 70.418958,48.685415 C 70.442596,48.673171 70.466039,48.660543 70.489871,48.648681 C 70.560058,48.613746 70.753191,48.478777 70.684671,48.516876 C 70.081397,48.85231 68.294122,49.898256 68.887731,49.546 C 69.260383,49.324863 73.605571,46.834035 69.382278,49.256458 C 70.715753,48.289987 72.163192,47.513566 73.590047,46.693721 C 73.237724,46.909185 74.919492,45.94907 74.589899,46.140119 C 74.106665,46.420225 72.653856,47.255149 73.136543,46.9741 C 73.980709,46.482576 75.003859,45.782784 75.996418,45.39077 C 76.091048,45.375031 76.269294,45.33125 76.372954,45.362197 C 76.674431,45.452203 76.860839,45.845364 77.009184,46.081219 C 77.58034,46.949832 77.909694,47.93376 78.263452,48.902565 C 78.589512,49.85347 78.97619,50.781355 79.331206,51.721375 C 79.532471,52.247313 79.675245,52.792947 79.844216,53.329486 C 79.960078,53.732856 80.091833,54.132919 80.243746,54.524239 C 80.351821,54.862581 80.538716,55.163801 80.690488,55.481809 L 78.688042,56.614242 C 78.541476,56.28831 78.356741,55.979302 78.248487,55.636263 C 78.093117,55.240322 77.956786,54.835696 77.841091,54.426459 C 77.679898,53.888143 77.564637,53.335662 77.377343,52.804815 C 77.041264,51.855192 76.685825,50.912733 76.355995,49.960808 C 76.004169,49.013014 75.656642,48.052308 75.066496,47.220981 C 74.781647,46.828537 74.701433,46.618992 74.2157,46.796297 C 74.031603,46.879283 73.499613,47.169172 73.673407,47.066342 C 74.179352,46.766985 75.709156,45.889394 75.198906,46.181352 C 74.094376,46.813349 73.002071,47.466257 71.883524,48.073295 C 75.019652,46.253364 72.110683,47.893117 71.489884,48.440473 C 70.757572,48.8679 70.019582,49.285745 69.292947,49.722754 C 68.722204,50.066007 71.6001,48.390788 71.022156,48.721771 C 70.309437,49.129939 69.606147,49.554651 68.888621,49.954307 C 68.819035,49.993067 68.689052,50.012103 68.607534,49.993454 C 68.563059,49.983279 68.52327,49.958441 68.481138,49.940935 C 68.0788,49.609466 68.079264,48.991962 67.868342,48.54512 C 67.63261,47.824056 67.396486,47.102879 67.129792,46.392601 C 66.832087,45.6173 66.451485,44.877173 66.126953,44.112937 C 65.452309,42.542466 64.788876,40.966578 64.191214,39.364833 C 63.077875,36.47697 61.948557,33.592143 60.602201,30.802823 C 60.343188,30.277294 60.094428,29.746586 59.825164,29.226235 C 58.50875,26.682277 56.981705,24.245598 55.280322,21.942165 C 54.136537,20.439707 54.674141,21.12435 53.559254,19.738613 C 53.141616,19.219514 52.708,18.71296 52.304496,18.182799 C 52.064714,17.867751 51.950079,17.66494 51.750485,17.33918 C 51.698546,17.253739 51.454548,16.85383 51.392294,16.746332 C 51.374339,16.715329 51.230839,16.373436 51.150394,16.358373 C 51.134841,16.355461 51.123047,16.374298 51.109373,16.38226 C 51.728712,16.018976 52.34805,15.655692 52.967389,15.292408 C 52.909444,15.328532 52.848446,15.360165 52.793555,15.400778 C 52.391768,15.698056 52.070391,16.096668 51.656405,16.380226 C 50.488992,17.3697 49.355564,18.419197 48.410743,19.627284 C 47.211206,21.165559 46.052948,22.740873 45.1107,24.453802 C 44.785666,25.021364 44.560206,25.407978 44.250195,25.975376 C 44.19081,26.084066 43.671605,27.146332 43.540572,27.238441 C 42.860385,27.716576 42.132439,28.12288 41.428373,28.5651 C 41.380608,28.572479 41.333196,28.591778 41.285079,28.587238 C 40.992743,28.559654 40.833178,28.198307 40.682123,27.999636 C 40.291922,27.429806 39.954671,26.828287 39.586695,26.244411 C 39.08245,25.46327 38.578676,24.682529 38.026055,23.933991 C 37.679187,23.421634 37.340403,22.901888 36.951479,22.419937 C 36.899478,22.393425 36.890718,22.369902 36.839001,22.400951 C 36.823765,22.410099 36.785175,22.446761 36.800603,22.437939 C 37.432345,22.076707 39.317968,20.976346 38.689318,21.342933 C 38.607216,21.39081 33.609087,24.290795 38.441365,21.4837 C 38.004589,21.752433 37.575369,22.035124 37.143261,22.312494 C 35.890035,23.094332 34.61618,23.843232 33.380943,24.653897 C 31.0116,26.24024 28.6425,27.827574 26.189301,29.283405 C 23.982073,30.639679 21.791752,32.022165 19.602553,33.407224 C 18.769924,33.893611 17.941727,34.387667 17.104665,34.866387 C 16.691769,35.102524 16.203886,35.375482 15.72006,35.208782 C 15.107189,34.878069 14.76034,34.256129 14.379008,33.696976 C 13.568379,32.520886 12.755367,31.343588 12.029179,30.112902 C 11.646087,29.454694 11.237984,28.811912 10.864013,28.148414 C 10.791033,28.056512 10.767908,27.995513 10.649922,28.040089 C 10.610499,28.054984 10.498367,28.113411 10.534567,28.091833 C 12.901975,26.68066 12.829947,26.722847 12.096745,27.185074 C 11.431188,27.719736 10.813592,28.304157 10.245685,28.941851 C 9.6624742,29.53947 9.0681846,30.128954 8.4479394,30.688206 C 7.3392329,31.554709 6.0852798,32.247925 4.7977937,32.813551 L 6.615954,31.38382 z" transform="translate(95.1872, 327.458)"/>
  </g>
</svg>